HIERARCHY
ROOT Hips
{
  OFFSET 40.5536 90.4282 -43.4263
  CHANNELS 6 Xposition Yposition Zposition Zrotation Xrotation Yrotation
  JOINT RightUpLeg
  {
    OFFSET -8.9458 -8.66707 0.101652
    CHANNELS 3 Zrotation Xrotation Yrotation
    JOINT RightLeg
    {
      OFFSET 0 -44.4227 1.3727
      CHANNELS 3 Zrotation Xrotation Yrotation
      JOINT RightFoot
      {
        OFFSET 0.253549 -42.0924 -1.46059
        CHANNELS 3 Zrotation Xrotation Yrotation
        JOINT RightToes
        {
          OFFSET 0.04 -4.41509 8.4991
          CHANNELS 3 Zrotation Xrotation Yrotation
          End Site
          {
            OFFSET -0.08 -0.137448 9.77979
          }
        }
      }
    }
  }
  JOINT Spine
  {
    OFFSET 0 11.8905 0
    CHANNELS 3 Zrotation Xrotation Yrotation
    JOINT Spine1
    {
      OFFSET 0 25.6574 0.127663
      CHANNELS 3 Zrotation Xrotation Yrotation
      JOINT HEad
      {
        OFFSET 0 8.73416 0.011341
        CHANNELS 3 Zrotation Xrotation Yrotation
        End Site
        {
          OFFSET -0.29 12.7742 2.51395
        }
      }
      JOINT LeftShoulder1
      {
        OFFSET 8.99 -0.362252 -0.22
        CHANNELS 3 Zrotation Xrotation Yrotation
        JOINT LeftArm
        {
          OFFSET 10.2827 -0.00338 0.322123
          CHANNELS 3 Zrotation Xrotation Yrotation
          JOINT LeftForeArm
          {
            OFFSET 32.7669 0.099144 -1.42434
            CHANNELS 3 Zrotation Xrotation Yrotation
            JOINT LeftHand
            {
              OFFSET 27.5643 0.085362 1.02216
              CHANNELS 3 Zrotation Xrotation Yrotation
              End Site
              {
                OFFSET 16.7443 -0.6 1.50291
              }
            }
          }
        }
      }
      JOINT RightShoulder
      {
        OFFSET -8.99 -0.362252 -0.22
        CHANNELS 3 Zrotation Xrotation Yrotation
        JOINT RightArm
        {
          OFFSET -10.2827 -0.00338 0.322123
          CHANNELS 3 Zrotation Xrotation Yrotation
          JOINT RightForeArm
          {
            OFFSET -32.8971 0.099144 -1.42434
            CHANNELS 3 Zrotation Xrotation Yrotation
            JOINT RightHand
            {
              OFFSET -27.4921 0.085362 1.02216
              CHANNELS 3 Zrotation Xrotation Yrotation
              End Site
              {
                OFFSET -16.6312 -0.6 1.50291
              }
            }
          }
        }
      }
    }
  }
  JOINT LeftUpLeg
  {
    OFFSET 8.9458 -8.66707 0.101652
    CHANNELS 3 Zrotation Xrotation Yrotation
    JOINT LeftLeg
    {
      OFFSET 0 -44.4227 1.3727
      CHANNELS 3 Zrotation Xrotation Yrotation
      JOINT LeftFoot
      {
        OFFSET -0.253549 -42.0924 -1.46059
        CHANNELS 3 Zrotation Xrotation Yrotation
        JOINT LeftToes
        {
          OFFSET -0.04 -4.41509 8.4991
          CHANNELS 3 Zrotation Xrotation Yrotation
          End Site
          {
            OFFSET 0.08 -0.047448 9.77979
          }
        }
      }
    }
  }
}
MOTION
Frames:	8
Frame Time:	0.0166667
66.2855 85.3378 -23.2362 2.81821 -4.49425 23.7124 -11.8399 -51.7412 -1.49204 1.53446 41.464 -2.62716 11.924 42.0279 -4.89807 0.0462048 0.000533403 0.662642 -0.766709 9.37281 -6.16246 -6.06765 17.4197 -11.5449 0.243532 4.45184 27.8937 2.78299e-015 -3.18055e-015 7.95139e-016 -89.7219 -35.5016 -84.4857 -21.7039 18.8073 -34.7887 7.71582 25.0098 -3.03231 24.8282 -3.51458 -15.4603 60.0226 -30.4231 40.2677 1.32012 63.4941 130.217 -20.7051 17.4184 10.022 15.4796 1.08932 -12.7313 -31.6728 57.929 38.4511 -2.85028 36.5113 1.52781 -1.32382e-009 1.55872e-007 -4.84707e-009 
66.6976 85.8068 -23.2515 4.28885 -4.23359 26.8343 -15.1831 -50.2774 -2.01039 1.66097 41.3415 -4.80929 10.4688 42.8018 -4.37323 0.0462048 0.000533403 0.662642 -0.754192 9.84015 -5.75594 -6.02608 18.471 -10.6681 1.44577 3.2331 24.5389 -3.18055e-015 3.18055e-015 -1.59028e-015 -92.0001 -34.4262 -79.8889 -23.191 21.0159 -36.0689 7.70914 24.9463 -3.02301 24.2799 -3.55052 -15.8614 61.0418 -32.8963 39.2817 2.58959 64.3372 128.174 -21.3743 17.2028 10.7714 16.7333 -1.0604 -12.7115 -32.5678 58.4166 39.6061 0.653697 33.5933 0.258746 -1.32382e-009 1.55872e-007 -4.84706e-009 
66.9524 86.2691 -23.2856 5.60674 -3.93293 30.4834 -18.7291 -48.4824 -2.54262 2.45901 41.1301 -7.75184 8.85065 43.4744 -3.77013 0.0462048 0.000533403 0.662642 -0.817944 10.2097 -5.34494 -6.092 19.3612 -9.81223 2.69706 2.2772 20.6863 3.18055e-015 -3.18055e-015 -3.18055e-015 -93.1821 -33.1542 -75.3925 -24.6087 23.1421 -37.4213 7.70023 24.8601 -3.01043 24.0432 -3.69509 -16.5301 61.8379 -35.5721 37.8175 3.40022 65.0358 126.996 -21.9152 17.0383 11.2851 18.5783 -3.66929 -12.645 -33.4883 58.5161 41.5434 4.01962 29.8486 -0.75129 -1.3238e-009 1.55872e-007 -4.84707e-009 
67.1132 86.6788 -23.4072 6.63747 -3.61852 34.5175 -22.259 -46.4402 -3.04967 3.84824 40.8229 -11.2059 7.24985 43.8823 -3.15949 0.0462048 0.000533403 0.662642 -0.854542 10.4884 -4.93081 -6.19607 20.0575 -8.94891 4.00206 1.63434 16.3768 -7.95139e-016 -6.36111e-015 3.18055e-015 -93.768 -31.8614 -71.4864 -26.3076 25.6408 -38.7867 7.68917 24.7527 -2.99479 24.1105 -3.92204 -17.3553 62.3097 -38.463 35.9343 3.90416 65.6807 126.396 -22.3762 16.9111 11.6311 20.7602 -6.68895 -12.4806 -34.0656 58.2979 43.5264 6.31888 25.6919 -1.23117 -1.3238e-009 1.55872e-007 -4.84707e-009 
67.267 86.9979 -23.7095 7.31241 -3.36329 38.746 -25.5716 -44.2429 -3.50603 5.63747 40.4277 -14.784 5.88634 43.8193 -2.63257 0.0462048 0.000533403 0.662642 -0.74937 10.6945 -4.51846 -6.27517 20.5625 -8.05199 5.38937 1.30139 11.7495 -1.59028e-015 -3.18055e-015 -3.18055e-015 -94.1317 -30.6283 -68.3782 -28.5288 28.7658 -40.0615 7.67606 24.6258 -2.97634 24.4222 -4.20193 -18.2327 62.4097 -41.5338 33.7571 4.40777 66.3561 125.883 -22.8672 16.775 11.9847 22.9584 -9.88714 -12.2186 -33.8239 57.7358 44.6125 7.09617 22.1422 -1.23895 -1.32382e-009 1.55872e-007 -4.84707e-009 
67.5016 87.2257 -24.2798 7.65041 -3.25231 42.9315 -28.4977 -41.97 -3.8691 7.58328 39.954 -18.0478 4.93482 43.0433 -2.25723 0.0462048 0.000533403 0.662642 -0.430875 10.8372 -4.11063 -6.2806 20.8944 -7.12093 6.86215 1.22851 7.03749 4.77083e-015 -4.77083e-015 -0 -94.5207 -29.4172 -66.0656 -31.3702 32.5139 -41.1142 7.661 24.4808 -2.95535 24.8784 -4.49923 -19.0664 62.1588 -44.6733 31.4555 5.25187 67.1147 124.937 -23.4993 16.576 12.5359 24.8564 -12.8961 -11.9259 -32.3695 56.7067 44.0279 6.50717 20.366 -1.02274 -1.32381e-009 1.55872e-007 -4.84707e-009 
67.8755 87.4289 -25.1648 7.74306 -3.33005 46.8099 -30.9001 -39.6809 -4.05278 9.44197 39.3819 -20.622 4.44351 41.278 -2.03377 0.0462048 0.000533403 0.662642 0.0717776 10.9092 -3.70605 -6.1884 21.0677 -6.18786 8.36406 1.34806 2.53144 -1.59028e-015 -4.77083e-015 -0 -94.9518 -27.9635 -64.3502 -34.7034 36.5105 -41.9443 7.64469 24.3194 -2.93205 25.364 -4.7739 -19.7722 61.6439 -47.692 29.2232 6.70228 67.9511 123.187 -24.3217 16.2763 13.4022 26.2024 -15.3037 -11.7148 -29.6539 55.0487 41.5805 5.05732 20.9383 -0.74238 -1.3238e-009 1.55872e-007 -4.84707e-009 
68.4055 87.7278 -26.3629 7.69567 -3.57111 50.1297 -32.6846 -37.4475 -3.9404 11.0048 38.6856 -22.2944 4.34205 38.2021 -1.89769 0.0462048 0.000533403 0.662642 0.644961 10.8985 -3.30914 -6.00138 21.0829 -5.30447 9.78156 1.60735 -1.47938 -8.82781e-032 -1.59028e-015 -3.18055e-015 -94.4027 -24.5122 -62.5799 -37.1962 38.9064 -43.8953 7.62712 24.1432 -2.9067 25.7811 -4.99095 -20.2915 61.007 -50.3517 27.2617 8.85687 68.7938 120.533 -25.2872 15.8726 14.576 26.8609 -16.7611 -11.6863 -26.0644 52.6466 37.7179 3.21845 23.5122 -0.39237 -1.32382e-009 1.55872e-007 -4.84706e-009 
